HIERARCHY
ROOT Hips
{
	OFFSET 0.000000 0.000000 0.000000 
	CHANNELS 6 Xposition Yposition Zposition Zrotation Yrotation Xrotation
	JOINT LeftUpLeg
	{
		OFFSET 1.363060 -1.794630 0.839290 
		CHANNELS 3 Zrotation Yrotation Xrotation
		JOINT LeftLeg
		{
			OFFSET 2.448110 -6.726130 0.000000 
			CHANNELS 3 Zrotation Yrotation Xrotation
			JOINT LeftFoot
			{
				OFFSET 2.562200 -7.039590 0.000000 
				CHANNELS 3 Zrotation Yrotation Xrotation
				JOINT LeftToeBase
				{
					OFFSET 0.157640 -0.433110 2.322550 
					CHANNELS 3 Zrotation Yrotation Xrotation
					End Site
					{
						OFFSET 0.000000 0.000000 0.000000 
					}
				}
			}
		}
	}
	JOINT RightUpLeg
	{
		OFFSET -1.305520 -1.794630 0.839290 
		CHANNELS 3 Zrotation Yrotation Xrotation
		JOINT RightLeg
		{
			OFFSET -2.542530 -6.985550 0.000000 
			CHANNELS 3 Zrotation Yrotation Xrotation
			JOINT RightFoot
			{
				OFFSET -2.568260 -7.056230 0.000000 
				CHANNELS 3 Zrotation Yrotation Xrotation
				JOINT RightToeBase
				{
					OFFSET -0.164730 -0.452590 2.363150 
					CHANNELS 3 Zrotation Yrotation Xrotation
					End Site
					{
						OFFSET 0.000000 0.000000 0.000000 
					}
				}
			}
		}
	}
	JOINT Spine
	{
		OFFSET 0.028270 2.035590 -0.193380 
		CHANNELS 3 Zrotation Yrotation Xrotation
		JOINT Spine1
		{
			OFFSET 0.056720 2.048850 -0.042750 
			CHANNELS 3 Zrotation Yrotation Xrotation
			JOINT Neck1
			{
				OFFSET -0.054170 1.746240 0.172020 
				CHANNELS 3 Zrotation Yrotation Xrotation
				JOINT Head
				{
					OFFSET 0.104070 1.761360 -0.123970 
					CHANNELS 3 Zrotation Yrotation Xrotation
					End Site
					{
						OFFSET 0.000000 0.000000 0.000000 
					}
				}
			}
			JOINT LeftArm
			{
				OFFSET 3.362410 1.200890 -0.311210 
				CHANNELS 3 Zrotation Yrotation Xrotation
				JOINT LeftForeArm
				{
					OFFSET 4.983000 -0.000000 -0.000000 
					CHANNELS 3 Zrotation Yrotation Xrotation
					JOINT LeftHand
					{
						OFFSET 3.483560 -0.000000 -0.000000 
						CHANNELS 3 Zrotation Yrotation Xrotation
						JOINT LeftHandIndex1
						{
							OFFSET 0.715260 -0.000000 -0.000000 
							CHANNELS 3 Zrotation Yrotation Xrotation
							End Site
							{
								OFFSET 0.000000 0.000000 0.000000 
							}
						}
					}
				}
			}
			JOINT RightArm
			{
				OFFSET -3.136600 1.374050 -0.404650 
				CHANNELS 3 Zrotation Yrotation Xrotation
				JOINT RightForeArm
				{
					OFFSET -5.241900 -0.000000 -0.000000 
					CHANNELS 3 Zrotation Yrotation Xrotation
					JOINT RightHand
					{
						OFFSET -3.444170 -0.000000 -0.000000 
						CHANNELS 3 Zrotation Yrotation Xrotation
						JOINT RightHandIndex1
						{
							OFFSET -0.622530 -0.000000 -0.000000 
							CHANNELS 3 Zrotation Yrotation Xrotation
							End Site
							{
								OFFSET 0.000000 0.000000 0.000000 
							}
						}
					}
				}
			}
		}
	}
}
MOTION
Frames: 12
Frame Time: 0.041667
-0.392068 18.386381 7.945152 -5.134228 -5.023166 14.591504 -28.065794 -43.698853 21.751060 -3.951905 -2.551530 -3.207103 -12.897989 45.751013 -39.189951 1.217100 6.998100 19.709700 20.324117 28.050420 0.228483 3.408614 -0.595356 2.528998 6.424411 -21.653502 0.933901 -0.028100 1.081700 -2.973700 9.409635 5.290195 -32.773900 -7.265263 -0.055912 -7.687585 20.044024 -20.323571 19.253066 3.686900 -8.925200 6.310200 -86.339612 12.332134 -21.360200 14.155671 -16.760947 -2.748393 -0.511107 1.135892 17.760869 -7.125000 0.000000 0.000000 83.445025 -11.080467 -26.900039 -13.820460 17.997169 -2.705759 1.126108 0.984452 46.699981 7.125000 0.000000 0.000000 
-0.393432 18.385332 7.948511 -5.222814 -4.926126 14.468777 -28.338116 -43.735942 22.038151 -3.957774 -2.578256 -3.199088 -13.006756 45.895197 -39.169337 1.172300 6.872500 19.338200 20.261629 27.900003 0.241102 3.406595 -0.585977 2.484973 6.403996 -21.624192 1.068713 -0.028600 1.091300 -3.000000 11.064534 5.580775 -32.222938 -7.632204 -0.199511 -7.889898 20.089673 -20.212594 19.665713 3.743400 -8.848900 6.451200 -86.712309 12.293518 -22.114179 14.183852 -16.805784 -2.754949 -0.451644 1.113472 18.571976 -7.125000 0.000000 0.000000 83.079341 -11.005864 -26.631960 -13.739835 17.924242 -2.679608 1.126707 0.972726 46.940505 7.125000 0.000000 0.000000 
-0.393537 18.385017 7.951974 -5.367717 -4.869956 14.357987 -28.535634 -43.811895 22.318967 -3.969579 -2.611101 -3.196770 -12.985077 45.925906 -39.365108 1.189100 6.920000 19.478600 20.247950 27.897243 0.290140 3.405746 -0.577657 2.444894 6.401959 -21.632070 1.090598 -0.026300 1.047200 -2.878600 12.795082 5.885140 -31.540149 -8.053585 -0.338346 -8.068799 20.153336 -20.113375 20.007130 3.800400 -8.780600 6.583000 -87.071318 12.172927 -22.818878 14.185438 -16.816636 -2.758026 -0.417220 1.123847 18.965135 -7.125000 0.000000 0.000000 82.699303 -10.915465 -26.206751 -13.681776 17.880600 -2.662258 1.125626 0.969537 46.970917 7.125000 0.000000 0.000000 
-0.393118 18.384702 7.954387 -5.586113 -4.811765 14.271182 -28.564106 -43.854777 22.479217 -3.981051 -2.638906 -3.181618 -12.927015 45.890291 -39.536242 1.213300 6.987400 19.678100 20.307322 27.942964 0.322559 3.404484 -0.578577 2.432831 6.397883 -21.625415 1.042654 -0.025800 1.037300 -2.851600 14.546017 6.179830 -30.718087 -8.512950 -0.475496 -8.293174 20.025367 -20.023511 20.410449 3.799200 -8.719600 6.732300 -87.395609 12.009616 -23.374046 14.180955 -16.822316 -2.760810 -0.402666 1.140577 19.055314 -7.125000 0.000000 0.000000 82.349581 -10.776901 -25.774014 -13.646629 17.866824 -2.652228 1.122468 0.968584 46.935618 7.125000 0.000000 0.000000 
-0.396896 18.384702 7.961104 -6.044444 -4.664720 14.249916 -28.211193 -43.863950 22.506705 -3.987677 -2.684613 -3.231117 -13.005040 45.960937 -39.490688 1.194700 6.935700 19.524900 20.653371 28.026387 0.405077 3.408675 -0.552196 2.340268 6.423843 -21.744147 0.976077 -0.020200 0.917100 -2.520800 16.603181 6.558178 -29.936597 -9.113424 -0.640476 -8.567670 19.661783 -19.937144 20.951363 3.747700 -8.664700 6.927800 -87.753879 11.828088 -23.869750 14.172606 -16.815648 -2.752239 -0.451015 1.118070 18.963024 -7.125000 0.000000 0.000000 82.085360 -10.622557 -25.464816 -13.578205 17.806515 -2.633415 1.126335 0.970163 46.767695 7.125000 0.000000 0.000000 
-0.402038 18.385227 7.975166 -6.839178 -4.378153 14.205510 -27.735937 -44.009435 22.721318 -4.004028 -2.779695 -3.340418 -13.129415 46.140493 -39.610620 1.170500 6.867500 19.323400 21.213684 28.113083 0.536215 3.416458 -0.492075 2.125741 6.460655 -21.955043 0.973412 -0.009900 0.643100 -1.767200 20.524727 7.179608 -28.597106 -10.152841 -1.001840 -9.042229 19.375957 -19.637515 21.433415 3.819500 -8.522600 7.190500 -88.582026 11.133472 -26.402137 13.888848 -16.478371 -2.645943 -0.491886 1.159373 20.265853 -7.125000 0.000000 0.000000 81.517088 -10.423624 -24.766580 -13.429124 17.671380 -2.598280 1.136820 0.978695 46.428546 7.125000 0.000000 0.000000 
-0.403507 18.385647 7.983457 -7.009705 -4.347476 14.301661 -27.583767 -44.163761 22.814106 -4.006884 -2.786566 -3.386451 -13.155336 46.251442 -39.812159 1.168600 6.862000 19.307100 21.441987 28.158349 0.603132 3.422153 -0.452737 2.012087 6.466563 -22.015827 0.991150 -0.005800 0.491900 -1.351500 20.494994 7.282680 -29.055906 -10.256365 -1.011106 -8.989675 19.391252 -19.635682 21.404775 3.850600 -8.529900 7.185600 -88.459964 10.431639 -29.820151 13.285641 -15.784321 -2.451088 -0.409273 1.312608 23.440078 -7.125000 0.000000 0.000000 81.629113 -10.624210 -24.751902 -13.437833 17.676703 -2.605005 1.140596 0.994365 46.151173 7.125000 0.000000 0.000000 
-0.403087 18.385751 7.984191 -7.008424 -4.340719 14.304445 -27.581225 -44.158716 22.791470 -4.006243 -2.774710 -3.353807 -13.143084 46.222581 -39.785377 1.166200 6.855100 19.286800 21.431862 28.167132 0.596273 3.421828 -0.456872 2.023090 6.459301 -21.988883 0.965728 -0.004900 0.451300 -1.240000 20.519163 7.286237 -29.060318 -10.257691 -1.016740 -9.030514 19.357989 -19.629213 21.466257 3.845800 -8.525700 7.203000 -88.477819 10.444735 -29.895336 13.281454 -15.782669 -2.450199 -0.404966 1.313464 23.454554 -7.125000 0.000000 0.000000 81.611865 -10.635867 -24.709824 -13.453852 17.701483 -2.610942 1.138032 0.997984 46.130148 7.125000 0.000000 0.000000 
-0.403087 18.385856 7.984716 -6.970456 -4.322279 14.317192 -27.585432 -44.139638 22.734960 -4.003057 -2.761494 -3.324369 -13.168273 46.221062 -39.684806 1.156800 6.828500 19.208200 21.394612 28.185488 0.581646 3.421971 -0.464311 2.038465 6.472800 -22.017961 0.930615 -0.004200 0.418500 -1.150100 20.408254 7.280072 -29.117232 -10.208919 -1.000088 -9.064360 19.387151 -19.625765 21.509276 3.858200 -8.520500 7.217300 -88.654799 11.291809 -26.526824 13.854689 -16.431573 -2.629016 -0.535712 1.142491 20.067715 -7.125000 0.000000 0.000000 81.608855 -10.626665 -24.765257 -13.468010 17.720047 -2.616057 1.136313 0.999876 46.145456 7.125000 0.000000 0.000000 
-0.402772 18.385751 7.986080 -6.812097 -4.360432 14.360825 -27.741003 -44.202156 22.769050 -4.002456 -2.748847 -3.318024 -13.139541 46.230998 -39.793533 1.168800 6.862600 19.308900 21.271219 28.176568 0.566617 3.423686 -0.457196 2.018678 6.489184 -22.056270 0.947964 -0.004900 0.450100 -1.236700 19.742276 7.203565 -29.475888 -10.033757 -0.935041 -8.976885 19.592842 -19.637947 21.394779 3.910500 -8.523800 7.176900 -88.626312 11.789319 -24.753424 14.147072 -16.763394 -2.724587 -0.600402 1.049984 18.404734 -7.125000 0.000000 0.000000 81.697222 -10.675812 -24.924122 -13.493242 17.740396 -2.623609 1.136128 1.003446 46.104899 7.125000 0.000000 0.000000 
-0.402038 18.385542 7.988389 -6.663540 -4.418412 14.411364 -27.931280 -44.324293 22.910613 -4.004493 -2.747558 -3.348976 -13.078088 46.250240 -40.041054 1.189600 6.921200 19.482100 21.178748 28.073286 0.527614 3.424464 -0.443050 1.987931 6.468852 -22.005310 1.053532 -0.006100 0.505200 -1.388100 18.833915 7.100722 -29.954251 -9.840722 -0.849221 -8.833730 19.751160 -19.679665 21.278854 3.939400 -8.544000 7.120200 -88.431748 11.919815 -24.477155 14.138623 -16.749226 -2.719236 -0.605855 1.039279 18.373209 -7.125000 0.000000 0.000000 81.848542 -10.765217 -25.122385 -13.516810 17.751875 -2.628947 1.136064 1.006486 46.036941 7.125000 0.000000 0.000000 
-0.401093 18.385017 7.991432 -6.627245 -4.431415 14.435309 -27.989645 -44.379381 22.984902 -4.005605 -2.749749 -3.369354 -13.041326 46.245215 -40.152085 1.202600 6.957800 19.590300 21.175901 28.004111 0.518948 3.424663 -0.432581 1.966686 6.449981 -21.961814 1.125124 -0.006700 0.528800 -1.453200 18.424879 7.052353 -30.146339 -9.781555 -0.810332 -8.748625 19.730786 -19.687517 21.213442 3.927100 -8.553700 7.081100 -88.320665 11.974656 -24.362492 14.134840 -16.745482 -2.717099 -0.600390 1.031669 18.403957 -7.125000 0.000000 0.000000 81.918195 -10.796175 -25.204144 -13.522730 17.749255 -2.628427 1.134328 1.007206 46.035963 7.125000 0.000000 0.000000 
